<svg id="Layer_1" data-name="Layer 1" xmlns="http://www.w3.org/2000/svg" viewBox="0 0 122.88 117.29"><defs><style>.cls-1{fill:#c00;}.cls-2{fill:#e40001;fill-rule:evenodd;}.cls-3{fill:#fff;}</style></defs><title>new</title><path class="cls-1" d="M61.39,7.26,77.3.37A4.43,4.43,0,0,1,82.87,2.2L91.6,17l16.91,3.78A4.43,4.43,0,0,1,112,25.56L110.3,42.69l11.47,13a4.44,4.44,0,0,1-.24,6.12l-11.2,12.64L112,91.74a4.41,4.41,0,0,1-3.6,4.76l-16.65,3.68-8.84,14.93a4.44,4.44,0,0,1-5.77,1.73L61.49,110l-15.91,6.88A4.43,4.43,0,0,1,40,115.1l-8.73-14.84L14.37,96.47a4.42,4.42,0,0,1-3.45-4.73L12.58,74.6l-11.47-13a4.43,4.43,0,0,1,.24-6.12L12.54,42.83,10.92,25.56a4.42,4.42,0,0,1,3.6-4.77l16.65-3.68L40,2.18A4.42,4.42,0,0,1,45.78.46l15.61,6.8Z"/><polygon class="cls-2" points="61.37 12.08 79.05 4.43 88.76 20.93 107.56 25.14 105.71 44.19 118.44 58.65 105.75 72.97 107.56 92.15 88.86 96.28 79.05 112.86 61.51 105.21 43.82 112.86 34.12 96.36 15.32 92.15 17.17 73.1 4.44 58.65 17.13 44.32 15.32 25.14 34.01 21.01 43.82 4.43 61.37 12.08 61.37 12.08"/><path class="cls-1" d="M38.93,77.88l-.23-.2a3.56,3.56,0,0,1-2.57,2.7l-7.37,2a3.57,3.57,0,0,1-4.36-2.52L18.23,56.79a3.56,3.56,0,0,1,2.52-4.36l6.93-1.85a3.55,3.55,0,0,1,3.46.94l.13.11a3.55,3.55,0,0,1,2.57-2.7l7.37-2a3.59,3.59,0,0,1,2,0,3.61,3.61,0,0,1,1.71-1l16.22-4.34a3.26,3.26,0,0,1,.76-.12l.2-.1a3.69,3.69,0,0,1,.56-.19l7.66-2.05a3.51,3.51,0,0,1,2.54.27,3.57,3.57,0,0,1,2.07-1.51l5.64-1.51a3.54,3.54,0,0,1,2.55.27,3.59,3.59,0,0,1,2.06-1.5l7.7-2.07a3.56,3.56,0,0,1,4.36,2.52,3.31,3.31,0,0,1,.12.7l2.54,23.86A3.55,3.55,0,0,1,97.26,64l-9.62,2.58a3.57,3.57,0,0,1-2-.06,3.61,3.61,0,0,1-1.75,1.08l-9.62,2.58a3.55,3.55,0,0,1-2.72-.38,3.56,3.56,0,0,1-2.18,1.69l-16.41,4.4a3.5,3.5,0,0,1-2,0,3.53,3.53,0,0,1-1.71,1l-6.93,1.86a3.55,3.55,0,0,1-3.36-.85Z"/><path class="cls-3" d="M41.37,75.29l-7.83-6.67A3.93,3.93,0,0,1,32.7,67l-.15,0,2.66,10-7.37,2L21.67,55.87,28.6,54l7.83,6.67a4,4,0,0,1,.85,1.67l.14,0-2.66-10,7.37-2,6.17,23-6.93,1.86Zm23-15.5-7.38,2,.75,2.8,9-2.42,1.58,5.9L52,72.45,45.82,49.4,62,45.06l.66,6.14-7.93,2.13.83,3.09,7.37-2,1.44,5.34ZM86.08,38.61l7.7-2.06,2.56,24-9.62,2.58-4-8-.44.12.61,8.93L73.3,66.74,63.51,44.66l7.71-2.06L76.4,55l.22-.06-.79-13.58,5.64-1.51L87.53,52l.23,0L86.08,38.61Z"/></svg>